<svg id="Capa_1" enable-background="new 0 0 510 510" height="512" viewBox="0 0 510 510" width="512" xmlns="http://www.w3.org/2000/svg"><g><g><path d="m0 142.5v287.308c0 31.811 25.881 57.692 57.692 57.692h394.615c31.812 0 57.692-25.881 57.692-57.692v-287.308zm165 175.093v30 60h-30v-60h-75v-27.675l35.925-97.511 28.15 10.371-31.247 84.814h42.172v-30h30zm145 35c0 30.327-24.673 55-55 55s-55-24.673-55-55v-75c0-30.327 24.673-55 55-55s55 24.673 55 55zm140 55h-30v-60h-75v-27.675l35.925-97.511 28.15 10.371-31.247 84.814h42.172v-30h30z"/><path d="m255 252.593c-13.785 0-25 11.215-25 25v75c0 13.785 11.215 25 25 25s25-11.215 25-25v-75c0-13.785-11.215-25-25-25z"/></g><path d="m390 22.5h-180v60h-30v-60h-30v60h-30v-60h-30v60h-30v-60h-60v90h390z"/><path d="m420 22.5h90v90h-90z"/></g></svg>